<svg width="140" height="35" viewBox="0 0 140 35" fill="none" xmlns="http://www.w3.org/2000/svg">
<g clip-path="url(#clip0_12724_12598)">
<path d="M120.792 13.3408C123.468 13.3409 125.614 14.2424 127.229 16.0459C128.843 17.835 129.65 20.2283 129.65 23.2246V23.8145H114.268C114.34 26.3159 114.966 28.2796 116.144 29.7051C117.322 31.1306 118.901 31.8437 120.879 31.8438C122.304 31.8437 123.555 31.4584 124.632 30.6875C125.708 29.9166 126.603 28.7526 127.315 27.1963L129.781 28.5488C128.792 30.5126 127.578 31.9606 126.138 32.8916C124.712 33.808 122.959 34.2656 120.879 34.2656C118.042 34.2656 115.744 33.3197 113.983 31.4287C112.238 29.5233 111.365 27.0287 111.365 23.9453C111.365 20.7744 112.231 18.2138 113.962 16.2646C115.707 14.3155 117.985 13.3408 120.792 13.3408ZM80.8428 0C82.1901 1.60105e-05 83.5075 0.142624 84.7949 0.427734C86.1123 0.684338 87.4896 1.09777 88.9268 1.66797V11.6768C86.8907 9.31028 84.3759 8.12704 81.3818 8.12695C80.0643 8.12695 78.8361 8.35431 77.6982 8.81055C76.5904 9.26678 75.6327 9.89496 74.8242 10.6934C74.0158 11.4632 73.3717 12.3901 72.8926 13.4736C72.4435 14.5571 72.2188 15.726 72.2188 16.9805C72.2188 18.2635 72.4435 19.4468 72.8926 20.5303C73.3717 21.6138 74.0157 22.5551 74.8242 23.3535C75.6625 24.1518 76.6354 24.7792 77.7432 25.2354C78.8511 25.6916 80.0494 25.9199 81.3369 25.9199C84.1514 25.9198 86.6812 24.779 88.9268 22.498V32.4209L88.0293 32.7207C86.6818 33.1769 85.4237 33.5045 84.2559 33.7041C83.0882 33.9322 81.9356 34.0469 80.7979 34.0469C78.4623 34.0469 76.2165 33.6326 74.0605 32.8057C71.9346 31.9502 70.0482 30.7671 68.4014 29.2559C66.7845 27.7161 65.4813 25.9057 64.4932 23.8242C63.505 21.7141 63.0117 19.4183 63.0117 16.9375C63.0117 14.4568 63.4901 12.1897 64.4482 10.1367C65.4364 8.05517 66.7395 6.27279 68.3564 4.79004C70.0033 3.27892 71.9048 2.11007 74.0605 1.2832C76.2164 0.427799 78.4773 0 80.8428 0ZM19.3047 7.4209H8.75879V13.0518H18.3662V20.4697H8.75879V33.6982H0V0.00195312H19.3047V7.4209ZM33.9102 0.00195312C36.2039 0.00200724 38.3488 0.46417 40.3447 1.3877C42.3705 2.31127 44.1286 3.54748 45.6182 5.09668C47.1373 6.61596 48.3285 8.40356 49.1924 10.459C50.0563 12.4848 50.4882 14.6153 50.4883 16.8496C50.4883 19.0542 50.0563 21.1846 49.1924 23.2402C48.3582 25.2662 47.1815 27.0543 45.6621 28.6035C44.1727 30.1525 42.4152 31.389 40.3896 32.3125C38.3937 33.236 36.2337 33.6982 33.9102 33.6982H20.9502V0.00195312H33.9102ZM61.2637 33.6982H52.5059V0.00195312H61.2637V33.6982ZM101.784 13.3408C103.98 13.3409 105.689 13.9521 106.911 15.1738C108.133 16.3957 108.744 18.0975 108.744 20.2793V33.415H106.017V21.4795C106.017 19.545 105.609 18.1116 104.795 17.1807C103.995 16.2354 102.751 15.7627 101.063 15.7627C99.0127 15.7628 97.4999 16.374 96.5254 17.5957C95.5654 18.803 95.085 20.7089 95.085 23.3125V33.415H92.4014V14.0605H94.9541V17.0498C95.7396 15.8134 96.7004 14.8892 97.835 14.2783C98.984 13.6531 100.301 13.3408 101.784 13.3408ZM135.763 14.0605H139.646V16.3516H135.763V33.415H133.122V16.3516H129.565V14.0605H133.122V6.11816H135.763V14.0605ZM29.709 26.2793H31.7197C33.2389 26.2793 34.5946 26.041 35.7861 25.5645C36.9778 25.0878 37.9759 24.4319 38.7803 23.5977C39.6144 22.7635 40.2401 21.7806 40.6572 20.6484C41.1041 19.4865 41.3281 18.2201 41.3281 16.8496C41.3281 15.5091 41.1041 14.2575 40.6572 13.0957C40.2104 11.934 39.5704 10.9357 38.7363 10.1016C37.932 9.26743 36.9337 8.61242 35.7422 8.13574C34.5505 7.65906 33.2093 7.4209 31.7197 7.4209H29.709V26.2793ZM120.442 15.9375C118.813 15.9375 117.445 16.4467 116.34 17.4648C115.249 18.483 114.617 19.8364 114.442 21.5234H126.465C126.334 19.749 125.744 18.374 124.697 17.3994C123.65 16.4249 122.231 15.9375 120.442 15.9375Z" fill="white"/>
</g>
<defs>
<clipPath id="clip0_12724_12598">
<rect width="139.646" height="34.2656" fill="white"/>
</clipPath>
</defs>
</svg>
